<svg xmlns="http://www.w3.org/2000/svg" viewBox="0 0 64 64" role="img" aria-labelledby="logo-title">
  <title id="logo-title">LLM Firmware Benchmark circuit mark</title>
  <defs>
    <linearGradient id="logo-tile" x1="0" y1="0" x2="0" y2="1">
      <stop offset="0" stop-color="#13272a"/>
      <stop offset="1" stop-color="#0d1b1e"/>
    </linearGradient>
  </defs>
  <rect width="64" height="64" rx="14" fill="url(#logo-tile)"/>
  <g stroke="#72d6ba" stroke-width="3.5" stroke-linecap="round">
    <path d="M26 8v14M38 8v14"/>
    <path d="M26 42v14M38 42v14"/>
    <path d="M8 26h14M8 38h14"/>
    <path d="M42 26h14M42 38h14"/>
  </g>
  <g fill="#72d6ba">
    <rect x="23.5" y="5.5" width="5" height="5" rx="1"/>
    <rect x="35.5" y="5.5" width="5" height="5" rx="1"/>
    <rect x="23.5" y="53.5" width="5" height="5" rx="1"/>
    <rect x="35.5" y="53.5" width="5" height="5" rx="1"/>
    <rect x="5.5" y="23.5" width="5" height="5" rx="1"/>
    <rect x="5.5" y="35.5" width="5" height="5" rx="1"/>
    <rect x="53.5" y="23.5" width="5" height="5" rx="1"/>
    <rect x="53.5" y="35.5" width="5" height="5" rx="1"/>
  </g>
  <rect x="20" y="20" width="24" height="24" rx="4" fill="#f0ad53"/>
  <path d="M25 27h14M25 32h9M25 37h14" stroke="#0d1b1e" stroke-width="2.5" stroke-linecap="round"/>
</svg>
